<svg width="263" height="27" viewBox="0 0 263 27" fill="none" xmlns="http://www.w3.org/2000/svg">
<path d="M13.1221 0.00799775C14.7061 0.00799775 16.0021 0.247998 17.0101 0.727999C18.0421 1.184 18.9541 1.724 19.7461 2.348C20.2261 2.708 20.5861 2.756 20.8261 2.492C21.0901 2.204 21.2701 1.544 21.3661 0.512H22.1941C22.1461 1.448 22.1101 2.588 22.0861 3.932C22.0621 5.252 22.0501 7.016 22.0501 9.224H21.2221C21.1021 8.12 20.9461 7.184 20.7541 6.416C20.5621 5.624 20.2981 4.928 19.9621 4.328C19.6261 3.728 19.1461 3.188 18.5221 2.708C17.9221 2.108 17.2261 1.664 16.4341 1.376C15.6421 1.088 14.8141 0.943999 13.9501 0.943999C12.6541 0.943999 11.5501 1.292 10.6381 1.988C9.72608 2.66 8.98208 3.584 8.40608 4.76C7.85408 5.936 7.44608 7.268 7.18208 8.756C6.91808 10.22 6.78608 11.744 6.78608 13.328C6.78608 14.936 6.91808 16.484 7.18208 17.972C7.47008 19.436 7.90208 20.744 8.47808 21.896C9.07808 23.048 9.84608 23.96 10.7821 24.632C11.7181 25.304 12.8221 25.64 14.0941 25.64C14.8861 25.64 15.6781 25.496 16.4701 25.208C17.2861 24.896 17.9821 24.452 18.5581 23.876C19.4941 23.156 20.1301 22.268 20.4661 21.212C20.8021 20.132 21.0541 18.704 21.2221 16.928H22.0501C22.0501 19.208 22.0621 21.056 22.0861 22.472C22.1101 23.864 22.1461 25.04 22.1941 26H21.3661C21.2701 24.968 21.1021 24.32 20.8621 24.056C20.6461 23.792 20.2741 23.828 19.7461 24.164C18.8581 24.788 17.9101 25.34 16.9021 25.82C15.9181 26.276 14.6461 26.504 13.0861 26.504C10.5421 26.504 8.31008 25.988 6.39008 24.956C4.49408 23.924 3.01808 22.436 1.96208 20.492C0.906078 18.548 0.378078 16.208 0.378078 13.472C0.378078 10.784 0.918078 8.432 1.99808 6.416C3.10208 4.4 4.60208 2.828 6.49808 1.7C8.41808 0.571998 10.6261 0.00799775 13.1221 0.00799775ZM44.6969 0.512C44.6009 1.568 44.5289 2.588 44.4809 3.572C44.4569 4.556 44.4449 5.312 44.4449 5.84C44.4449 6.32 44.4569 6.776 44.4809 7.208C44.5049 7.64 44.5289 8 44.5529 8.288H43.7249C43.4849 6.536 43.1129 5.156 42.6089 4.148C42.1049 3.116 41.4449 2.396 40.6289 1.988C39.8369 1.556 38.9009 1.34 37.8209 1.34H36.3449C35.6489 1.34 35.1209 1.4 34.7609 1.52C34.4009 1.64 34.1609 1.88 34.0409 2.24C33.9209 2.6 33.8609 3.152 33.8609 3.896V22.616C33.8609 23.36 33.9209 23.912 34.0409 24.272C34.1609 24.632 34.4009 24.872 34.7609 24.992C35.1209 25.112 35.6489 25.172 36.3449 25.172H38.1089C39.1889 25.172 40.1369 24.944 40.9529 24.488C41.7929 24.008 42.5009 23.204 43.0769 22.076C43.6769 20.948 44.1329 19.424 44.4449 17.504H45.2729C45.2009 18.272 45.1649 19.28 45.1649 20.528C45.1649 21.08 45.1769 21.86 45.2009 22.868C45.2249 23.876 45.2969 24.92 45.4169 26C44.1929 25.952 42.8129 25.928 41.2769 25.928C39.7409 25.904 38.3729 25.892 37.1729 25.892C36.5729 25.892 35.8049 25.892 34.8689 25.892C33.9329 25.892 32.9249 25.904 31.8449 25.928C30.7649 25.928 29.6729 25.94 28.5689 25.964C27.4649 25.964 26.4209 25.976 25.4369 26V25.28C26.2049 25.232 26.7809 25.136 27.1649 24.992C27.5489 24.848 27.8009 24.56 27.9209 24.128C28.0649 23.696 28.1369 23.048 28.1369 22.184V4.328C28.1369 3.44 28.0649 2.792 27.9209 2.384C27.8009 1.952 27.5369 1.664 27.1289 1.52C26.7449 1.352 26.1809 1.256 25.4369 1.232V0.512C26.4209 0.536 27.4649 0.559999 28.5689 0.583999C29.6729 0.583999 30.7649 0.595999 31.8449 0.619998C32.9249 0.619998 33.9329 0.619998 34.8689 0.619998C35.8049 0.619998 36.5729 0.619998 37.1729 0.619998C38.2769 0.619998 39.5249 0.619998 40.9169 0.619998C42.3329 0.595999 43.5929 0.559999 44.6969 0.512ZM39.0809 12.824C39.0809 12.824 39.0809 12.944 39.0809 13.184C39.0809 13.424 39.0809 13.544 39.0809 13.544H32.7809C32.7809 13.544 32.7809 13.424 32.7809 13.184C32.7809 12.944 32.7809 12.824 32.7809 12.824H39.0809ZM40.1249 8.072C40.0289 9.44 39.9809 10.484 39.9809 11.204C40.0049 11.924 40.0169 12.584 40.0169 13.184C40.0169 13.784 40.0289 14.444 40.0529 15.164C40.0769 15.884 40.1369 16.928 40.2329 18.296H39.4049C39.2849 17.456 39.0569 16.676 38.7209 15.956C38.4089 15.236 37.9529 14.66 37.3529 14.228C36.7529 13.772 35.9729 13.544 35.0129 13.544V12.824C35.7329 12.824 36.3449 12.68 36.8489 12.392C37.3529 12.08 37.7609 11.684 38.0729 11.204C38.4089 10.7 38.6729 10.172 38.8649 9.62C39.0569 9.068 39.2009 8.552 39.2969 8.072H40.1249ZM58.0813 0.00799775C59.7133 0.00799775 61.1413 0.223998 62.3653 0.655998C63.5893 1.088 64.5493 1.712 65.2453 2.528C65.9413 3.344 66.2893 4.316 66.2893 5.444C66.2893 6.452 66.0253 7.352 65.4973 8.144C64.9693 8.912 64.2853 9.596 63.4453 10.196C62.6053 10.772 61.6933 11.252 60.7093 11.636C59.7493 12.02 58.8133 12.308 57.9013 12.5C59.0533 12.524 60.2053 12.668 61.3573 12.932C62.5093 13.196 63.5533 13.604 64.4893 14.156C65.4493 14.708 66.2173 15.404 66.7933 16.244C67.3693 17.06 67.6573 18.032 67.6573 19.16C67.6573 20.336 67.3333 21.392 66.6853 22.328C66.0613 23.24 65.2093 24.008 64.1293 24.632C63.0733 25.232 61.8733 25.688 60.5293 26C59.1853 26.336 57.8053 26.504 56.3893 26.504C55.1653 26.504 53.9773 26.372 52.8253 26.108C51.6973 25.844 50.7253 25.412 49.9093 24.812C49.3813 24.428 48.9133 23.96 48.5053 23.408C48.1213 22.832 47.9293 22.196 47.9293 21.5C47.9293 20.588 48.2293 19.868 48.8293 19.34C49.4293 18.812 50.1493 18.548 50.9893 18.548C51.8293 18.548 52.5133 18.788 53.0413 19.268C53.5693 19.748 53.8333 20.468 53.8333 21.428C53.8333 22.172 53.5813 22.808 53.0773 23.336C52.5973 23.864 51.9253 24.236 51.0613 24.452C51.5173 24.812 52.1533 25.112 52.9693 25.352C53.7853 25.592 54.7333 25.712 55.8133 25.712C57.8053 25.712 59.3533 25.16 60.4573 24.056C61.5853 22.928 62.1493 21.32 62.1493 19.232C62.1493 18.128 61.9813 17.096 61.6453 16.136C61.3093 15.176 60.7813 14.396 60.0613 13.796C59.3413 13.196 58.4293 12.872 57.3253 12.824C57.0853 12.944 56.8333 13.052 56.5693 13.148C56.3293 13.244 56.0653 13.292 55.7773 13.292C55.5853 13.292 55.4053 13.244 55.2373 13.148C55.0933 13.052 55.0213 12.896 55.0213 12.68C55.0213 12.296 55.2973 12.104 55.8493 12.104C56.0893 12.104 56.3413 12.128 56.6053 12.176C56.8693 12.224 57.1213 12.272 57.3613 12.32C58.2493 11.96 58.9333 11.468 59.4133 10.844C59.9173 10.196 60.2653 9.464 60.4573 8.648C60.6493 7.832 60.7453 6.98 60.7453 6.092C60.7453 4.316 60.3973 3.032 59.7013 2.24C59.0293 1.448 58.0453 1.052 56.7493 1.052C55.3813 1.052 54.2533 1.412 53.3653 2.132C52.4773 2.828 51.7933 3.764 51.3133 4.94C50.8573 6.092 50.5813 7.364 50.4853 8.756H49.6573C49.6573 7.244 49.6453 5.972 49.6213 4.94C49.6213 3.908 49.6093 3.032 49.5853 2.312C49.5853 1.592 49.5613 0.955999 49.5133 0.403999H50.3413C50.4133 1.052 50.5093 1.544 50.6293 1.88C50.7493 2.192 50.9533 2.348 51.2413 2.348C51.4333 2.348 51.7213 2.216 52.1053 1.952C52.6093 1.616 53.1133 1.304 53.6173 1.016C54.1213 0.704 54.7213 0.463999 55.4173 0.295998C56.1373 0.103998 57.0253 0.00799775 58.0813 0.00799775ZM82.9775 0.00799775C85.5215 0.00799775 87.7415 0.523998 89.6375 1.556C91.5575 2.588 93.0455 4.076 94.1015 6.02C95.1575 7.94 95.6855 10.28 95.6855 13.04C95.6855 15.728 95.1455 18.08 94.0655 20.096C92.9855 22.112 91.4735 23.684 89.5295 24.812C87.6095 25.94 85.4135 26.504 82.9415 26.504C80.3975 26.504 78.1655 25.988 76.2455 24.956C74.3495 23.924 72.8735 22.436 71.8175 20.492C70.7615 18.548 70.2335 16.208 70.2335 13.472C70.2335 10.784 70.7735 8.432 71.8535 6.416C72.9575 4.4 74.4575 2.828 76.3535 1.7C78.2735 0.571998 80.4815 0.00799775 82.9775 0.00799775ZM82.8335 0.655998C81.4895 0.655998 80.3135 1.196 79.3055 2.276C78.3215 3.356 77.5535 4.844 77.0015 6.74C76.4735 8.636 76.2095 10.832 76.2095 13.328C76.2095 15.872 76.5095 18.092 77.1095 19.988C77.7335 21.86 78.5615 23.312 79.5935 24.344C80.6495 25.352 81.8135 25.856 83.0855 25.856C84.4295 25.856 85.5935 25.316 86.5775 24.236C87.5855 23.156 88.3535 21.668 88.8815 19.772C89.4335 17.852 89.7095 15.656 89.7095 13.184C89.7095 10.616 89.3975 8.396 88.7735 6.524C88.1735 4.652 87.3455 3.212 86.2895 2.204C85.2575 1.172 84.1055 0.655998 82.8335 0.655998ZM113.439 26V25.28C114.207 25.232 114.783 25.136 115.167 24.992C115.551 24.848 115.803 24.56 115.923 24.128C116.067 23.696 116.139 23.048 116.139 22.184V4.328C116.139 3.44 116.067 2.792 115.923 2.384C115.803 1.952 115.539 1.664 115.131 1.52C114.747 1.352 114.183 1.256 113.439 1.232V0.512C114.087 0.536 114.927 0.559999 115.959 0.583999C117.015 0.607999 118.059 0.619998 119.091 0.619998C120.195 0.619998 121.227 0.607999 122.187 0.583999C123.171 0.559999 123.963 0.536 124.563 0.512V1.232C123.795 1.256 123.207 1.352 122.799 1.52C122.415 1.664 122.163 1.952 122.043 2.384C121.923 2.792 121.863 3.44 121.863 4.328V22.184C121.863 23.048 121.923 23.696 122.043 24.128C122.187 24.56 122.451 24.848 122.835 24.992C123.219 25.136 123.795 25.232 124.563 25.28V26C123.963 25.952 123.171 25.928 122.187 25.928C121.227 25.904 120.195 25.892 119.091 25.892C118.059 25.892 117.015 25.904 115.959 25.928C114.927 25.928 114.087 25.952 113.439 26ZM98.1752 26V25.28C98.9432 25.232 99.5192 25.136 99.9032 24.992C100.287 24.848 100.539 24.56 100.659 24.128C100.803 23.696 100.875 23.048 100.875 22.184V4.328C100.875 3.44 100.803 2.792 100.659 2.384C100.539 1.952 100.275 1.664 99.8672 1.52C99.4832 1.352 98.9192 1.256 98.1752 1.232V0.512C98.7992 0.536 99.6032 0.559999 100.587 0.583999C101.595 0.607999 102.687 0.619998 103.863 0.619998C104.871 0.619998 105.867 0.607999 106.851 0.583999C107.835 0.559999 108.651 0.536 109.299 0.512V1.232C108.531 1.256 107.943 1.352 107.535 1.52C107.151 1.664 106.899 1.952 106.779 2.384C106.659 2.792 106.599 3.44 106.599 4.328V22.184C106.599 23.048 106.659 23.696 106.779 24.128C106.923 24.56 107.187 24.848 107.571 24.992C107.955 25.136 108.531 25.232 109.299 25.28V26C108.651 25.952 107.835 25.928 106.851 25.928C105.867 25.904 104.871 25.892 103.863 25.892C102.687 25.892 101.595 25.904 100.587 25.928C99.6032 25.928 98.7992 25.952 98.1752 26ZM104.259 13.544V12.824H118.479V13.544H104.259ZM143.765 6.884C145.613 6.884 147.077 7.28 148.157 8.072C149.237 8.864 149.777 9.992 149.777 11.456C149.777 12.392 149.537 13.244 149.057 14.012C148.601 14.78 147.989 15.512 147.221 16.208C146.453 16.88 145.625 17.516 144.737 18.116C143.873 18.716 143.033 19.316 142.217 19.916C141.401 20.492 140.705 21.092 140.129 21.716H147.905C148.889 21.716 149.513 21.596 149.777 21.356C150.041 21.116 150.221 20.696 150.317 20.096H151.073C151.073 21.704 151.085 22.952 151.109 23.84C151.133 24.728 151.169 25.508 151.217 26.18C151.001 26.132 150.605 26.096 150.029 26.072C149.453 26.048 148.793 26.024 148.049 26C147.305 26 146.573 26 145.853 26H135.377V25.316C136.049 24.596 136.877 23.804 137.861 22.94C138.845 22.076 139.805 21.116 140.741 20.06C141.701 19.004 142.505 17.864 143.153 16.64C143.801 15.392 144.125 14.06 144.125 12.644C144.125 11.348 143.837 10.412 143.261 9.836C142.685 9.26 141.857 8.972 140.777 8.972C139.745 8.972 138.833 9.212 138.041 9.692C137.273 10.148 136.577 10.832 135.953 11.744L135.341 11.384C135.821 10.568 136.421 9.824 137.141 9.152C137.885 8.456 138.797 7.904 139.877 7.496C140.957 7.088 142.253 6.884 143.765 6.884ZM164.517 6.884C166.437 6.884 168.129 7.28 169.593 8.072C171.057 8.84 172.209 9.944 173.049 11.384C173.889 12.8 174.309 14.468 174.309 16.388C174.309 18.308 173.877 20.036 173.013 21.572C172.173 23.084 170.985 24.284 169.449 25.172C167.937 26.06 166.161 26.504 164.121 26.504C162.249 26.504 160.569 26.108 159.081 25.316C157.617 24.524 156.453 23.42 155.589 22.004C154.749 20.564 154.329 18.884 154.329 16.964C154.329 15.068 154.749 13.364 155.589 11.852C156.429 10.316 157.617 9.104 159.153 8.216C160.689 7.328 162.477 6.884 164.517 6.884ZM164.193 7.532C162.897 7.532 161.829 8.36 160.989 10.016C160.173 11.648 159.765 13.928 159.765 16.856C159.765 19.016 159.981 20.756 160.413 22.076C160.845 23.396 161.409 24.356 162.105 24.956C162.825 25.556 163.605 25.856 164.445 25.856C165.741 25.856 166.797 25.028 167.613 23.372C168.453 21.716 168.873 19.424 168.873 16.496C168.873 14.336 168.657 12.596 168.225 11.276C167.793 9.956 167.217 9.008 166.497 8.432C165.801 7.832 165.033 7.532 164.193 7.532ZM185.812 6.884C187.66 6.884 189.124 7.28 190.204 8.072C191.284 8.864 191.824 9.992 191.824 11.456C191.824 12.392 191.584 13.244 191.104 14.012C190.648 14.78 190.036 15.512 189.268 16.208C188.5 16.88 187.672 17.516 186.784 18.116C185.92 18.716 185.08 19.316 184.264 19.916C183.448 20.492 182.752 21.092 182.176 21.716H189.952C190.936 21.716 191.56 21.596 191.824 21.356C192.088 21.116 192.268 20.696 192.364 20.096H193.12C193.12 21.704 193.132 22.952 193.156 23.84C193.18 24.728 193.216 25.508 193.264 26.18C193.048 26.132 192.652 26.096 192.076 26.072C191.5 26.048 190.84 26.024 190.096 26C189.352 26 188.62 26 187.9 26H177.424V25.316C178.096 24.596 178.924 23.804 179.908 22.94C180.892 22.076 181.852 21.116 182.788 20.06C183.748 19.004 184.552 17.864 185.2 16.64C185.848 15.392 186.172 14.06 186.172 12.644C186.172 11.348 185.884 10.412 185.308 9.836C184.732 9.26 183.904 8.972 182.824 8.972C181.792 8.972 180.88 9.212 180.088 9.692C179.32 10.148 178.624 10.832 178 11.744L177.388 11.384C177.868 10.568 178.468 9.824 179.188 9.152C179.932 8.456 180.844 7.904 181.924 7.496C183.004 7.088 184.3 6.884 185.812 6.884ZM206.564 6.884C208.484 6.884 210.176 7.28 211.64 8.072C213.104 8.84 214.256 9.944 215.096 11.384C215.936 12.8 216.356 14.468 216.356 16.388C216.356 18.308 215.924 20.036 215.06 21.572C214.22 23.084 213.032 24.284 211.496 25.172C209.984 26.06 208.208 26.504 206.168 26.504C204.296 26.504 202.616 26.108 201.128 25.316C199.664 24.524 198.5 23.42 197.636 22.004C196.796 20.564 196.376 18.884 196.376 16.964C196.376 15.068 196.796 13.364 197.636 11.852C198.476 10.316 199.664 9.104 201.2 8.216C202.736 7.328 204.524 6.884 206.564 6.884ZM206.24 7.532C204.944 7.532 203.876 8.36 203.036 10.016C202.22 11.648 201.812 13.928 201.812 16.856C201.812 19.016 202.028 20.756 202.46 22.076C202.892 23.396 203.456 24.356 204.152 24.956C204.872 25.556 205.652 25.856 206.492 25.856C207.788 25.856 208.844 25.028 209.66 23.372C210.5 21.716 210.92 19.424 210.92 16.496C210.92 14.336 210.704 12.596 210.272 11.276C209.84 9.956 209.264 9.008 208.544 8.432C207.848 7.832 207.08 7.532 206.24 7.532ZM230.091 0.00799775L220.299 26.504H219.111L228.903 0.00799775H230.091ZM240.445 6.884C242.293 6.884 243.757 7.28 244.837 8.072C245.917 8.864 246.457 9.992 246.457 11.456C246.457 12.392 246.217 13.244 245.737 14.012C245.281 14.78 244.669 15.512 243.901 16.208C243.133 16.88 242.305 17.516 241.417 18.116C240.553 18.716 239.713 19.316 238.897 19.916C238.081 20.492 237.385 21.092 236.809 21.716H244.585C245.569 21.716 246.193 21.596 246.457 21.356C246.721 21.116 246.901 20.696 246.997 20.096H247.753C247.753 21.704 247.765 22.952 247.789 23.84C247.813 24.728 247.849 25.508 247.897 26.18C247.681 26.132 247.285 26.096 246.709 26.072C246.133 26.048 245.473 26.024 244.729 26C243.985 26 243.253 26 242.533 26H232.057V25.316C232.729 24.596 233.557 23.804 234.541 22.94C235.525 22.076 236.485 21.116 237.421 20.06C238.381 19.004 239.185 17.864 239.833 16.64C240.481 15.392 240.805 14.06 240.805 12.644C240.805 11.348 240.517 10.412 239.941 9.836C239.365 9.26 238.537 8.972 237.457 8.972C236.425 8.972 235.513 9.212 234.721 9.692C233.953 10.148 233.257 10.832 232.633 11.744L232.021 11.384C232.501 10.568 233.101 9.824 233.821 9.152C234.565 8.456 235.477 7.904 236.557 7.496C237.637 7.088 238.933 6.884 240.445 6.884ZM259.541 6.992V22.508C259.541 23.564 259.733 24.284 260.117 24.668C260.525 25.052 261.197 25.244 262.133 25.244V26C261.653 25.976 260.945 25.952 260.009 25.928C259.097 25.88 258.149 25.856 257.165 25.856C255.941 25.856 254.753 25.88 253.601 25.928C252.473 25.952 251.597 25.976 250.973 26V25.244C252.053 25.244 252.881 25.052 253.457 24.668C254.057 24.26 254.357 23.468 254.357 22.292V13.508C254.357 12.356 254.261 11.504 254.069 10.952C253.877 10.4 253.517 10.04 252.989 9.872C252.461 9.704 251.741 9.62 250.829 9.62V8.828C252.893 8.78 254.597 8.624 255.941 8.36C257.309 8.096 258.509 7.64 259.541 6.992Z" fill="white"/>
</svg>
