<svg width="302" height="32" viewBox="0 0 302 32" fill="none" xmlns="http://www.w3.org/2000/svg">
<path d="M9.57091 0.512V1.232C8.75491 1.256 8.13091 1.352 7.69891 1.52C7.29091 1.664 7.01491 1.952 6.87091 2.384C6.72691 2.792 6.65491 3.44 6.65491 4.328V22.184C6.65491 23.048 6.72691 23.696 6.87091 24.128C7.01491 24.56 7.29091 24.848 7.69891 24.992C8.13091 25.136 8.75491 25.232 9.57091 25.28V26C9.01891 25.952 8.32291 25.928 7.48291 25.928C6.66691 25.904 5.83891 25.892 4.99891 25.892C4.06291 25.892 3.18691 25.904 2.37091 25.928C1.55491 25.928 0.894906 25.952 0.390906 26V25.28C1.20691 25.232 1.81891 25.136 2.22691 24.992C2.65891 24.848 2.94691 24.56 3.09091 24.128C3.23491 23.696 3.30691 23.048 3.30691 22.184V4.328C3.30691 3.44 3.23491 2.792 3.09091 2.384C2.94691 1.952 2.65891 1.664 2.22691 1.52C1.81891 1.352 1.20691 1.256 0.390906 1.232V0.512C0.894906 0.536 1.55491 0.559999 2.37091 0.583999C3.18691 0.607999 4.06291 0.619998 4.99891 0.619998C5.83891 0.619998 6.66691 0.607999 7.48291 0.583999C8.32291 0.559999 9.01891 0.536 9.57091 0.512ZM9.17491 12.464C10.4469 12.464 11.6349 12.596 12.7389 12.86C13.8669 13.124 14.8269 13.628 15.6189 14.372C16.4109 15.116 16.9749 16.22 17.3109 17.684L18.3549 22.22C18.6189 23.324 18.8589 24.104 19.0749 24.56C19.2909 24.992 19.6629 25.196 20.1909 25.172C20.5989 25.148 20.9349 25.016 21.1989 24.776C21.4869 24.536 21.7869 24.212 22.0989 23.804L22.6389 24.2C22.1829 24.872 21.6789 25.424 21.1269 25.856C20.5749 26.288 19.7949 26.504 18.7869 26.504C17.9469 26.504 17.1789 26.264 16.4829 25.784C15.8109 25.28 15.2949 24.224 14.9349 22.616L13.9269 18.152C13.7109 17.144 13.4589 16.268 13.1709 15.524C12.8829 14.78 12.4269 14.204 11.8029 13.796C11.1789 13.364 10.2549 13.148 9.03091 13.148H5.97091V12.464H9.17491ZM6.65491 13.148V12.464C7.66291 12.44 8.50291 12.236 9.17491 11.852C9.87091 11.444 10.4469 10.952 10.9029 10.376L14.3589 5.984C15.1509 4.976 15.6909 4.124 15.9789 3.428C16.2669 2.732 16.2549 2.204 15.9429 1.844C15.6309 1.46 14.9709 1.256 13.9629 1.232V0.512C14.6589 0.536 15.3669 0.559999 16.0869 0.583999C16.8069 0.607999 17.4789 0.619998 18.1029 0.619998C19.4229 0.619998 20.4429 0.583999 21.1629 0.512V1.232C20.4189 1.328 19.6989 1.58 19.0029 1.988C18.3069 2.372 17.6109 2.996 16.9149 3.86L9.60691 13.148H6.65491ZM35.7544 0.00799775C38.0344 0.00799775 40.0264 0.523998 41.7304 1.556C43.4584 2.588 44.7904 4.076 45.7264 6.02C46.6864 7.94 47.1664 10.28 47.1664 13.04C47.1664 15.728 46.6744 18.08 45.6904 20.096C44.7304 22.112 43.3864 23.684 41.6584 24.812C39.9304 25.94 37.9504 26.504 35.7184 26.504C33.4384 26.504 31.4344 25.988 29.7064 24.956C28.0024 23.924 26.6704 22.436 25.7104 20.492C24.7744 18.548 24.3064 16.208 24.3064 13.472C24.3064 10.784 24.7984 8.432 25.7824 6.416C26.7664 4.4 28.1104 2.828 29.8144 1.7C31.5424 0.571998 33.5224 0.00799775 35.7544 0.00799775ZM35.6104 0.655998C34.0504 0.655998 32.6944 1.196 31.5424 2.276C30.3904 3.356 29.4904 4.844 28.8424 6.74C28.2184 8.636 27.9064 10.832 27.9064 13.328C27.9064 15.872 28.2544 18.092 28.9504 19.988C29.6704 21.86 30.6304 23.312 31.8304 24.344C33.0544 25.352 34.3984 25.856 35.8624 25.856C37.4224 25.856 38.7784 25.316 39.9304 24.236C41.0824 23.156 41.9704 21.668 42.5944 19.772C43.2424 17.852 43.5664 15.656 43.5664 13.184C43.5664 10.616 43.2064 8.396 42.4864 6.524C41.7904 4.652 40.8424 3.212 39.6424 2.204C38.4424 1.172 37.0984 0.655998 35.6104 0.655998ZM71.6349 0.512V1.232C70.8189 1.256 70.1949 1.352 69.7629 1.52C69.3549 1.664 69.0789 1.952 68.9349 2.384C68.7909 2.792 68.7189 3.44 68.7189 4.328V22.184C68.7189 23.048 68.7909 23.696 68.9349 24.128C69.0789 24.56 69.3549 24.848 69.7629 24.992C70.1949 25.136 70.8189 25.232 71.6349 25.28V26C71.1309 25.952 70.4709 25.928 69.6549 25.928C68.8389 25.904 67.9629 25.892 67.0269 25.892C66.0669 25.892 65.0949 25.904 64.1109 25.928C63.1509 25.928 62.3589 25.952 61.7349 26V25.28C62.7429 25.232 63.5109 25.136 64.0389 24.992C64.5669 24.848 64.9149 24.56 65.0829 24.128C65.2749 23.696 65.3709 23.048 65.3709 22.184V4.328C65.3709 3.008 65.1909 2.168 64.8309 1.808C64.4709 1.424 63.6789 1.232 62.4549 1.232H61.9869C61.1469 1.232 60.5229 1.316 60.1149 1.484C59.7309 1.628 59.4789 1.928 59.3589 2.384C59.2389 2.816 59.1429 3.464 59.0709 4.328C58.9269 6.008 58.7829 7.856 58.6389 9.872C58.5189 11.864 58.3389 13.844 58.0989 15.812C57.8589 17.756 57.4869 19.544 56.9829 21.176C56.4789 22.784 55.7949 24.08 54.9309 25.064C54.0669 26.024 52.9389 26.504 51.5469 26.504C50.7549 26.504 50.0109 26.324 49.3149 25.964C48.6189 25.58 48.2709 24.944 48.2709 24.056C48.2709 23.432 48.4749 22.94 48.8829 22.58C49.2909 22.196 49.7949 22.004 50.3949 22.004C50.9229 22.004 51.3549 22.148 51.6909 22.436C52.0509 22.724 52.2309 23.108 52.2309 23.588C52.2309 24.116 52.0989 24.548 51.8349 24.884C51.5709 25.196 51.1869 25.496 50.6829 25.784C50.8509 25.808 51.0069 25.82 51.1509 25.82C51.3189 25.82 51.4509 25.82 51.5469 25.82C52.6509 25.82 53.5749 25.4 54.3189 24.56C55.0629 23.72 55.6629 22.58 56.1189 21.14C56.5989 19.676 56.9709 18.02 57.2349 16.172C57.4989 14.324 57.7029 12.392 57.8469 10.376C57.9909 8.336 58.1229 6.32 58.2429 4.328C58.3389 3.056 58.1949 2.24 57.8109 1.88C57.4509 1.496 56.6229 1.28 55.3269 1.232V0.512C55.8309 0.536 56.4309 0.559999 57.1269 0.583999C57.8229 0.607999 58.4589 0.619998 59.0349 0.619998C59.5869 0.619998 60.1149 0.607999 60.6189 0.583999C61.1469 0.536 61.6749 0.512 62.2029 0.512C63.1149 0.512 63.9429 0.536 64.6869 0.583999C65.4309 0.607999 66.3189 0.619998 67.3509 0.619998C67.8309 0.619998 68.3349 0.619998 68.8629 0.619998C69.3909 0.595999 69.8949 0.583999 70.3749 0.583999C70.8789 0.559999 71.2989 0.536 71.6349 0.512ZM96.4201 0.512V1.232C95.6041 1.256 94.9801 1.352 94.5481 1.52C94.1401 1.664 93.8641 1.952 93.7201 2.384C93.5761 2.792 93.5041 3.44 93.5041 4.328V22.184C93.5041 23.048 93.5761 23.696 93.7201 24.128C93.8641 24.56 94.1401 24.848 94.5481 24.992C94.9801 25.136 95.6041 25.232 96.4201 25.28V26C95.9161 25.952 95.2561 25.928 94.4401 25.928C93.6241 25.904 92.7481 25.892 91.8121 25.892C90.8521 25.892 89.8801 25.904 88.8961 25.928C87.9361 25.928 87.1441 25.952 86.5201 26V25.28C87.5281 25.232 88.2961 25.136 88.8241 24.992C89.3521 24.848 89.7001 24.56 89.8681 24.128C90.0601 23.696 90.1561 23.048 90.1561 22.184V4.328C90.1561 3.008 89.9761 2.168 89.6161 1.808C89.2561 1.424 88.4641 1.232 87.2401 1.232H86.7721C85.9321 1.232 85.3081 1.316 84.9001 1.484C84.5161 1.628 84.2641 1.928 84.1441 2.384C84.0241 2.816 83.9281 3.464 83.8561 4.328C83.7121 6.008 83.5681 7.856 83.4241 9.872C83.3041 11.864 83.1241 13.844 82.8841 15.812C82.6441 17.756 82.2721 19.544 81.7681 21.176C81.2641 22.784 80.5801 24.08 79.7161 25.064C78.8521 26.024 77.7241 26.504 76.3321 26.504C75.5401 26.504 74.7961 26.324 74.1001 25.964C73.4041 25.58 73.0561 24.944 73.0561 24.056C73.0561 23.432 73.2601 22.94 73.6681 22.58C74.0761 22.196 74.5801 22.004 75.1801 22.004C75.7081 22.004 76.1401 22.148 76.4761 22.436C76.8361 22.724 77.0161 23.108 77.0161 23.588C77.0161 24.116 76.8841 24.548 76.6201 24.884C76.3561 25.196 75.9721 25.496 75.4681 25.784C75.6361 25.808 75.7921 25.82 75.9361 25.82C76.1041 25.82 76.2361 25.82 76.3321 25.82C77.4361 25.82 78.3601 25.4 79.1041 24.56C79.8481 23.72 80.4481 22.58 80.9041 21.14C81.3841 19.676 81.7561 18.02 82.0201 16.172C82.2841 14.324 82.4881 12.392 82.6321 10.376C82.7761 8.336 82.9081 6.32 83.0281 4.328C83.1241 3.056 82.9801 2.24 82.5961 1.88C82.2361 1.496 81.4081 1.28 80.1121 1.232V0.512C80.6161 0.536 81.2161 0.559999 81.9121 0.583999C82.6081 0.607999 83.2441 0.619998 83.8201 0.619998C84.3721 0.619998 84.9001 0.607999 85.4041 0.583999C85.9321 0.536 86.4601 0.512 86.9881 0.512C87.9001 0.512 88.7281 0.536 89.4721 0.583999C90.2161 0.607999 91.1041 0.619998 92.1361 0.619998C92.6161 0.619998 93.1201 0.619998 93.6481 0.619998C94.1761 0.595999 94.6801 0.583999 95.1601 0.583999C95.6641 0.559999 96.0841 0.536 96.4201 0.512ZM117.425 0.512C117.329 1.352 117.257 2.168 117.209 2.96C117.185 3.752 117.173 4.352 117.173 4.76C117.173 5.192 117.185 5.612 117.209 6.02C117.233 6.404 117.257 6.728 117.281 6.992H116.453C116.309 5.576 116.105 4.46 115.841 3.644C115.577 2.804 115.121 2.216 114.473 1.88C113.849 1.52 112.901 1.34 111.629 1.34H108.641C107.825 1.34 107.201 1.412 106.769 1.556C106.361 1.676 106.085 1.952 105.941 2.384C105.797 2.792 105.725 3.44 105.725 4.328V22.184C105.725 23.048 105.797 23.696 105.941 24.128C106.085 24.56 106.361 24.848 106.769 24.992C107.201 25.112 107.825 25.172 108.641 25.172H111.269C112.781 25.172 113.921 24.968 114.689 24.56C115.481 24.152 116.045 23.492 116.381 22.58C116.741 21.644 117.005 20.384 117.173 18.8H118.001C117.929 19.448 117.893 20.312 117.893 21.392C117.893 21.848 117.905 22.508 117.929 23.372C117.977 24.212 118.049 25.088 118.145 26C116.921 25.952 115.541 25.928 114.005 25.928C112.469 25.904 111.101 25.892 109.901 25.892C109.181 25.892 108.221 25.892 107.021 25.892C105.845 25.892 104.585 25.904 103.241 25.928C101.897 25.928 100.637 25.952 99.4612 26V25.28C100.277 25.232 100.889 25.136 101.297 24.992C101.729 24.848 102.017 24.56 102.161 24.128C102.305 23.696 102.377 23.048 102.377 22.184V4.328C102.377 3.44 102.305 2.792 102.161 2.384C102.017 1.952 101.729 1.664 101.297 1.52C100.889 1.352 100.277 1.256 99.4612 1.232V0.512C100.637 0.536 101.897 0.559999 103.241 0.583999C104.585 0.607999 105.845 0.619998 107.021 0.619998C108.221 0.619998 109.181 0.619998 109.901 0.619998C111.005 0.619998 112.253 0.619998 113.645 0.619998C115.061 0.595999 116.321 0.559999 117.425 0.512ZM111.233 12.824C111.233 12.824 111.233 12.944 111.233 13.184C111.233 13.424 111.233 13.544 111.233 13.544H104.645C104.645 13.544 104.645 13.424 104.645 13.184C104.645 12.944 104.645 12.824 104.645 12.824H111.233ZM112.277 8.072C112.181 9.44 112.133 10.484 112.133 11.204C112.157 11.924 112.169 12.584 112.169 13.184C112.169 13.784 112.181 14.444 112.205 15.164C112.229 15.884 112.289 16.928 112.385 18.296H111.557C111.461 17.528 111.341 16.784 111.197 16.064C111.077 15.32 110.789 14.72 110.333 14.264C109.901 13.784 109.157 13.544 108.101 13.544V12.824C109.157 12.824 109.889 12.548 110.297 11.996C110.729 11.444 111.005 10.796 111.125 10.052C111.245 9.308 111.353 8.648 111.449 8.072H112.277ZM130.579 0.512V1.232C129.763 1.256 129.139 1.352 128.707 1.52C128.299 1.664 128.023 1.952 127.879 2.384C127.735 2.792 127.663 3.44 127.663 4.328V22.184C127.663 23.048 127.735 23.696 127.879 24.128C128.023 24.56 128.299 24.848 128.707 24.992C129.139 25.136 129.763 25.232 130.579 25.28V26C130.027 25.952 129.331 25.928 128.491 25.928C127.675 25.904 126.847 25.892 126.007 25.892C125.071 25.892 124.195 25.904 123.379 25.928C122.563 25.928 121.903 25.952 121.399 26V25.28C122.215 25.232 122.827 25.136 123.235 24.992C123.667 24.848 123.955 24.56 124.099 24.128C124.243 23.696 124.315 23.048 124.315 22.184V4.328C124.315 3.44 124.243 2.792 124.099 2.384C123.955 1.952 123.667 1.664 123.235 1.52C122.827 1.352 122.215 1.256 121.399 1.232V0.512C121.903 0.536 122.563 0.559999 123.379 0.583999C124.195 0.607999 125.071 0.619998 126.007 0.619998C126.847 0.619998 127.675 0.607999 128.491 0.583999C129.331 0.559999 130.027 0.536 130.579 0.512ZM130.183 12.464C131.455 12.464 132.643 12.596 133.747 12.86C134.875 13.124 135.835 13.628 136.627 14.372C137.419 15.116 137.983 16.22 138.319 17.684L139.363 22.22C139.627 23.324 139.867 24.104 140.083 24.56C140.299 24.992 140.671 25.196 141.199 25.172C141.607 25.148 141.943 25.016 142.207 24.776C142.495 24.536 142.795 24.212 143.107 23.804L143.647 24.2C143.191 24.872 142.687 25.424 142.135 25.856C141.583 26.288 140.803 26.504 139.795 26.504C138.955 26.504 138.187 26.264 137.491 25.784C136.819 25.28 136.303 24.224 135.943 22.616L134.935 18.152C134.719 17.144 134.467 16.268 134.179 15.524C133.891 14.78 133.435 14.204 132.811 13.796C132.187 13.364 131.263 13.148 130.039 13.148H126.979V12.464H130.183ZM127.663 13.148V12.464C128.671 12.44 129.511 12.236 130.183 11.852C130.879 11.444 131.455 10.952 131.911 10.376L135.367 5.984C136.159 4.976 136.699 4.124 136.987 3.428C137.275 2.732 137.263 2.204 136.951 1.844C136.639 1.46 135.979 1.256 134.971 1.232V0.512C135.667 0.536 136.375 0.559999 137.095 0.583999C137.815 0.607999 138.487 0.619998 139.111 0.619998C140.431 0.619998 141.451 0.583999 142.171 0.512V1.232C141.427 1.328 140.707 1.58 140.011 1.988C139.315 2.372 138.619 2.996 137.923 3.86L130.615 13.148H127.663ZM170.025 0.512V1.232C169.209 1.256 168.585 1.352 168.153 1.52C167.745 1.664 167.469 1.952 167.325 2.384C167.181 2.792 167.109 3.44 167.109 4.328V22.184C167.109 23.504 167.289 24.356 167.649 24.74C168.009 25.1 168.801 25.28 170.025 25.28H171.141C171.045 26.12 170.973 26.936 170.925 27.728C170.901 28.52 170.889 29.12 170.889 29.528C170.889 30.464 170.925 31.208 170.997 31.76H170.169C170.025 30.344 169.821 29.216 169.557 28.376C169.293 27.536 168.837 26.924 168.189 26.54C167.565 26.18 166.617 26 165.345 26C164.529 26 163.641 26 162.681 26C161.721 26 160.821 26 159.981 26C159.141 26 158.469 26 157.965 26C157.125 26 156.009 25.988 154.617 25.964C153.225 25.916 151.821 25.892 150.405 25.892C149.469 25.892 148.593 25.904 147.777 25.928C146.961 25.928 146.301 25.952 145.797 26V25.28C146.613 25.232 147.225 25.136 147.633 24.992C148.065 24.848 148.353 24.56 148.497 24.128C148.641 23.696 148.713 23.048 148.713 22.184V4.328C148.713 3.44 148.641 2.792 148.497 2.384C148.353 1.952 148.065 1.664 147.633 1.52C147.225 1.352 146.613 1.256 145.797 1.232V0.512C146.301 0.536 146.961 0.559999 147.777 0.583999C148.593 0.607999 149.469 0.619998 150.405 0.619998C151.245 0.619998 152.073 0.607999 152.889 0.583999C153.729 0.559999 154.425 0.536 154.977 0.512V1.232C154.161 1.256 153.537 1.352 153.105 1.52C152.697 1.664 152.421 1.952 152.277 2.384C152.133 2.792 152.061 3.44 152.061 4.328V22.184C152.061 23.504 152.241 24.356 152.601 24.74C152.961 25.1 153.753 25.28 154.977 25.28H160.845C162.069 25.28 162.861 25.1 163.221 24.74C163.581 24.356 163.761 23.504 163.761 22.184V4.328C163.761 3.44 163.689 2.792 163.545 2.384C163.401 1.952 163.113 1.664 162.681 1.52C162.273 1.352 161.661 1.256 160.845 1.232V0.512C161.397 0.536 162.093 0.559999 162.933 0.583999C163.773 0.607999 164.601 0.619998 165.417 0.619998C166.353 0.619998 167.229 0.607999 168.045 0.583999C168.861 0.559999 169.521 0.536 170.025 0.512ZM182.505 0.512V1.232C181.689 1.256 181.065 1.352 180.633 1.52C180.225 1.664 179.949 1.952 179.805 2.384C179.661 2.792 179.589 3.44 179.589 4.328V22.184C179.589 23.048 179.661 23.696 179.805 24.128C179.949 24.56 180.225 24.848 180.633 24.992C181.065 25.136 181.689 25.232 182.505 25.28V26C181.953 25.952 181.257 25.928 180.417 25.928C179.601 25.904 178.773 25.892 177.933 25.892C176.997 25.892 176.121 25.904 175.305 25.928C174.489 25.928 173.829 25.952 173.325 26V25.28C174.141 25.232 174.753 25.136 175.161 24.992C175.593 24.848 175.881 24.56 176.025 24.128C176.169 23.696 176.241 23.048 176.241 22.184V4.328C176.241 3.44 176.169 2.792 176.025 2.384C175.881 1.952 175.593 1.664 175.161 1.52C174.753 1.352 174.141 1.256 173.325 1.232V0.512C173.829 0.536 174.489 0.559999 175.305 0.583999C176.121 0.607999 176.997 0.619998 177.933 0.619998C178.773 0.619998 179.601 0.607999 180.417 0.583999C181.257 0.559999 181.953 0.536 182.505 0.512ZM192.621 2.888C192.621 2.888 192.609 3.02 192.585 3.284C192.561 3.524 192.537 3.776 192.513 4.04C192.513 4.304 192.513 4.436 192.513 4.436L178.113 24.848L178.221 23.3L192.621 2.888ZM198.273 0.512V1.232C197.457 1.256 196.833 1.352 196.401 1.52C195.993 1.664 195.717 1.952 195.573 2.384C195.429 2.792 195.357 3.44 195.357 4.328V22.184C195.357 23.048 195.429 23.696 195.573 24.128C195.717 24.56 195.993 24.848 196.401 24.992C196.833 25.136 197.457 25.232 198.273 25.28V26C197.769 25.952 197.109 25.928 196.293 25.928C195.477 25.904 194.601 25.892 193.665 25.892C192.849 25.892 192.021 25.904 191.181 25.928C190.341 25.928 189.645 25.952 189.093 26V25.28C189.909 25.232 190.521 25.136 190.929 24.992C191.361 24.848 191.649 24.56 191.793 24.128C191.937 23.696 192.009 23.048 192.009 22.184V4.328C192.009 3.44 191.937 2.792 191.793 2.384C191.649 1.952 191.361 1.664 190.929 1.52C190.521 1.352 189.909 1.256 189.093 1.232V0.512C189.645 0.536 190.341 0.559999 191.181 0.583999C192.021 0.607999 192.849 0.619998 193.665 0.619998C194.601 0.619998 195.477 0.607999 196.293 0.583999C197.109 0.559999 197.769 0.536 198.273 0.512ZM221.793 0.512V1.232C220.977 1.256 220.353 1.352 219.921 1.52C219.513 1.664 219.237 1.952 219.093 2.384C218.949 2.792 218.877 3.44 218.877 4.328V22.184C218.877 23.048 218.949 23.696 219.093 24.128C219.237 24.56 219.513 24.848 219.921 24.992C220.353 25.136 220.977 25.232 221.793 25.28V26C221.289 25.952 220.629 25.928 219.813 25.928C218.997 25.904 218.121 25.892 217.185 25.892C216.369 25.892 215.541 25.904 214.701 25.928C213.861 25.928 213.165 25.952 212.613 26V25.28C213.429 25.232 214.041 25.136 214.449 24.992C214.881 24.848 215.169 24.56 215.313 24.128C215.457 23.696 215.529 23.048 215.529 22.184V4.328C215.529 3.08 215.361 2.252 215.025 1.844C214.689 1.436 213.969 1.232 212.865 1.232C210.681 1.232 209.133 1.748 208.221 2.78C207.333 3.788 206.889 5.18 206.889 6.956C206.889 8.132 207.045 9.2 207.357 10.16C207.693 11.096 208.305 11.84 209.193 12.392C210.105 12.92 211.413 13.184 213.117 13.184H216.213C216.213 13.184 216.213 13.304 216.213 13.544C216.213 13.784 216.213 13.904 216.213 13.904H212.757C210.285 13.904 208.353 13.544 206.961 12.824C205.593 12.08 204.633 11.156 204.081 10.052C203.553 8.948 203.289 7.868 203.289 6.812C203.289 5.036 204.009 3.548 205.449 2.348C206.889 1.148 209.061 0.547999 211.965 0.547999C212.397 0.547999 213.129 0.559999 214.161 0.583999C215.193 0.607999 216.273 0.619998 217.401 0.619998C218.193 0.619998 218.997 0.607999 219.813 0.583999C220.629 0.559999 221.289 0.536 221.793 0.512ZM215.889 13.292L215.817 13.904H211.929C210.993 13.904 210.273 14.12 209.769 14.552C209.265 14.984 208.881 15.584 208.617 16.352C208.353 17.096 208.101 17.984 207.861 19.016L207.069 22.616C206.733 24.152 206.229 25.184 205.557 25.712C204.909 26.24 204.129 26.504 203.217 26.504C202.257 26.504 201.501 26.312 200.949 25.928C200.397 25.52 199.869 24.944 199.365 24.2L199.905 23.804C200.241 24.212 200.541 24.536 200.805 24.776C201.069 25.016 201.405 25.148 201.813 25.172C202.341 25.196 202.713 24.98 202.929 24.524C203.169 24.044 203.409 23.276 203.649 22.22L204.477 18.548C204.813 17.06 205.353 15.968 206.097 15.272C206.865 14.552 208.053 14.06 209.661 13.796C210.117 13.724 210.573 13.664 211.029 13.616C211.485 13.568 212.085 13.52 212.829 13.472C213.597 13.4 214.617 13.34 215.889 13.292ZM241.065 6.956C242.721 6.956 244.029 7.352 244.989 8.144C245.973 8.912 246.465 10.028 246.465 11.492C246.465 12.692 246.129 13.82 245.457 14.876C244.785 15.908 243.945 16.892 242.937 17.828C241.929 18.764 240.921 19.676 239.913 20.564C238.905 21.452 238.077 22.34 237.429 23.228H244.737C245.721 23.228 246.345 23.096 246.609 22.832C246.873 22.544 247.053 22.064 247.149 21.392H247.761C247.761 22.664 247.773 23.648 247.797 24.344C247.821 25.016 247.857 25.628 247.905 26.18C247.593 26.108 246.885 26.06 245.781 26.036C244.701 26.012 243.621 26 242.541 26H234.117V25.388C234.837 24.596 235.701 23.756 236.709 22.868C237.717 21.956 238.689 20.972 239.625 19.916C240.585 18.836 241.377 17.672 242.001 16.424C242.649 15.152 242.973 13.772 242.973 12.284C242.973 10.916 242.649 9.932 242.001 9.332C241.377 8.708 240.501 8.396 239.373 8.396C238.413 8.396 237.525 8.684 236.709 9.26C235.893 9.812 235.173 10.652 234.549 11.78L233.973 11.456C234.525 10.328 235.353 9.296 236.457 8.36C237.585 7.424 239.121 6.956 241.065 6.956ZM260.488 6.956C262.192 6.956 263.692 7.352 264.988 8.144C266.308 8.912 267.34 10.004 268.084 11.42C268.828 12.836 269.2 14.504 269.2 16.424C269.2 18.344 268.816 20.072 268.048 21.608C267.28 23.12 266.212 24.32 264.844 25.208C263.5 26.072 261.916 26.504 260.092 26.504C258.436 26.504 256.948 26.12 255.628 25.352C254.308 24.56 253.264 23.456 252.496 22.04C251.752 20.6 251.38 18.92 251.38 17C251.38 15.104 251.752 13.4 252.496 11.888C253.264 10.376 254.332 9.176 255.7 8.288C257.068 7.4 258.664 6.956 260.488 6.956ZM260.164 7.604C258.628 7.604 257.356 8.42 256.348 10.052C255.364 11.684 254.872 13.964 254.872 16.892C254.872 19.052 255.124 20.792 255.628 22.112C256.132 23.408 256.804 24.356 257.644 24.956C258.508 25.556 259.432 25.856 260.416 25.856C261.976 25.856 263.248 25.04 264.232 23.408C265.216 21.752 265.708 19.46 265.708 16.532C265.708 14.372 265.456 12.644 264.952 11.348C264.448 10.028 263.776 9.08 262.936 8.504C262.096 7.904 261.172 7.604 260.164 7.604ZM280.202 7.064V22.292C280.202 23.444 280.466 24.224 280.994 24.632C281.522 25.04 282.41 25.244 283.658 25.244V26C283.178 25.976 282.47 25.952 281.534 25.928C280.622 25.88 279.674 25.856 278.69 25.856C277.586 25.856 276.518 25.88 275.486 25.928C274.478 25.952 273.698 25.976 273.146 26V25.244C274.346 25.244 275.282 25.052 275.954 24.668C276.626 24.26 276.962 23.468 276.962 22.292V13.58C276.962 12.428 276.842 11.576 276.602 11.024C276.362 10.472 275.93 10.112 275.306 9.944C274.706 9.776 273.866 9.692 272.786 9.692V8.9C274.514 8.852 275.954 8.696 277.106 8.432C278.258 8.168 279.29 7.712 280.202 7.064ZM294.066 0.00799775C295.698 0.00799775 297.09 0.427998 298.242 1.268C299.418 2.084 300.006 3.308 300.006 4.94C300.006 6.404 299.526 7.7 298.566 8.828C297.606 9.956 296.37 11 294.858 11.96L294.57 11.456C295.482 10.688 296.13 9.788 296.514 8.756C296.922 7.7 297.126 6.584 297.126 5.408C297.126 3.992 296.826 2.852 296.226 1.988C295.65 1.1 294.798 0.655998 293.67 0.655998C292.71 0.655998 291.906 1.004 291.258 1.7C290.61 2.372 290.286 3.308 290.286 4.508C290.286 5.636 290.55 6.632 291.078 7.496C291.606 8.336 292.29 9.104 293.13 9.8C293.97 10.496 294.858 11.18 295.794 11.852C296.73 12.5 297.618 13.196 298.458 13.94C299.298 14.66 299.982 15.488 300.51 16.424C301.038 17.336 301.302 18.404 301.302 19.628C301.302 20.996 300.966 22.196 300.294 23.228C299.622 24.26 298.698 25.064 297.522 25.64C296.37 26.216 295.038 26.504 293.526 26.504C292.254 26.504 291.066 26.288 289.962 25.856C288.858 25.4 287.97 24.728 287.298 23.84C286.626 22.928 286.29 21.8 286.29 20.456C286.29 18.608 286.902 17.024 288.126 15.704C289.35 14.384 290.826 13.328 292.554 12.536L292.842 13.04C291.594 13.88 290.718 14.9 290.214 16.1C289.71 17.276 289.458 18.548 289.458 19.916C289.458 20.948 289.59 21.92 289.854 22.832C290.142 23.72 290.598 24.452 291.222 25.028C291.87 25.58 292.71 25.856 293.742 25.856C294.942 25.856 295.986 25.46 296.874 24.668C297.786 23.852 298.242 22.676 298.242 21.14C298.242 19.964 297.978 18.932 297.45 18.044C296.946 17.156 296.286 16.34 295.47 15.596C294.654 14.828 293.778 14.096 292.842 13.4C291.93 12.704 291.066 11.984 290.25 11.24C289.434 10.496 288.762 9.668 288.234 8.756C287.73 7.844 287.478 6.8 287.478 5.624C287.478 4.496 287.766 3.512 288.342 2.672C288.942 1.832 289.734 1.184 290.718 0.727999C291.726 0.247998 292.842 0.00799775 294.066 0.00799775Z" fill="white"/>
</svg>
