<svg width="438" height="27" viewBox="0 0 438 27" fill="none" xmlns="http://www.w3.org/2000/svg">
<path d="M15.6735 26V25.28C16.4415 25.232 17.0175 25.136 17.4015 24.992C17.7855 24.848 18.0375 24.56 18.1575 24.128C18.3015 23.696 18.3735 23.048 18.3735 22.184V4.328C18.3735 3.44 18.3015 2.792 18.1575 2.384C18.0375 1.952 17.7735 1.664 17.3655 1.52C16.9815 1.352 16.4175 1.256 15.6735 1.232V0.512C16.3215 0.536 17.1615 0.559999 18.1935 0.583999C19.2495 0.607999 20.2935 0.619998 21.3255 0.619998C22.4295 0.619998 23.4615 0.607999 24.4215 0.583999C25.4055 0.559999 26.1975 0.536 26.7975 0.512V1.232C26.0295 1.256 25.4415 1.352 25.0335 1.52C24.6495 1.664 24.3975 1.952 24.2775 2.384C24.1575 2.792 24.0975 3.44 24.0975 4.328V22.184C24.0975 23.048 24.1575 23.696 24.2775 24.128C24.4215 24.56 24.6855 24.848 25.0695 24.992C25.4535 25.136 26.0295 25.232 26.7975 25.28V26C26.1975 25.952 25.4055 25.928 24.4215 25.928C23.4615 25.904 22.4295 25.892 21.3255 25.892C20.2935 25.892 19.2495 25.904 18.1935 25.928C17.1615 25.928 16.3215 25.952 15.6735 26ZM0.409547 26V25.28C1.17755 25.232 1.75355 25.136 2.13755 24.992C2.52155 24.848 2.77355 24.56 2.89355 24.128C3.03755 23.696 3.10955 23.048 3.10955 22.184V4.328C3.10955 3.44 3.03755 2.792 2.89355 2.384C2.77355 1.952 2.50955 1.664 2.10155 1.52C1.71755 1.352 1.15355 1.256 0.409547 1.232V0.512C1.03355 0.536 1.83755 0.559999 2.82155 0.583999C3.82955 0.607999 4.92155 0.619998 6.09755 0.619998C7.10555 0.619998 8.10155 0.607999 9.08555 0.583999C10.0695 0.559999 10.8855 0.536 11.5335 0.512V1.232C10.7655 1.256 10.1775 1.352 9.76955 1.52C9.38555 1.664 9.13355 1.952 9.01355 2.384C8.89355 2.792 8.83355 3.44 8.83355 4.328V22.184C8.83355 23.048 8.89355 23.696 9.01355 24.128C9.15755 24.56 9.42155 24.848 9.80555 24.992C10.1895 25.136 10.7655 25.232 11.5335 25.28V26C10.8855 25.952 10.0695 25.928 9.08555 25.928C8.10155 25.904 7.10555 25.892 6.09755 25.892C4.92155 25.892 3.82955 25.904 2.82155 25.928C1.83755 25.928 1.03355 25.952 0.409547 26ZM6.49355 13.544V12.824H20.7135V13.544H6.49355ZM41.9893 0.00799775C44.5333 0.00799775 46.7533 0.523998 48.6493 1.556C50.5693 2.588 52.0573 4.076 53.1133 6.02C54.1693 7.94 54.6973 10.28 54.6973 13.04C54.6973 15.728 54.1573 18.08 53.0773 20.096C51.9973 22.112 50.4853 23.684 48.5413 24.812C46.6213 25.94 44.4253 26.504 41.9533 26.504C39.4093 26.504 37.1773 25.988 35.2573 24.956C33.3613 23.924 31.8853 22.436 30.8293 20.492C29.7733 18.548 29.2453 16.208 29.2453 13.472C29.2453 10.784 29.7853 8.432 30.8653 6.416C31.9693 4.4 33.4693 2.828 35.3653 1.7C37.2853 0.571998 39.4933 0.00799775 41.9893 0.00799775ZM41.8453 0.655998C40.5013 0.655998 39.3253 1.196 38.3173 2.276C37.3333 3.356 36.5653 4.844 36.0133 6.74C35.4853 8.636 35.2213 10.832 35.2213 13.328C35.2213 15.872 35.5213 18.092 36.1213 19.988C36.7453 21.86 37.5733 23.312 38.6053 24.344C39.6613 25.352 40.8253 25.856 42.0973 25.856C43.4413 25.856 44.6053 25.316 45.5893 24.236C46.5973 23.156 47.3653 21.668 47.8933 19.772C48.4453 17.852 48.7213 15.656 48.7213 13.184C48.7213 10.616 48.4093 8.396 47.7853 6.524C47.1853 4.652 46.3573 3.212 45.3013 2.204C44.2693 1.172 43.1173 0.655998 41.8453 0.655998ZM57.1869 0.512C57.7869 0.536 58.5909 0.559999 59.5989 0.583999C60.6309 0.607999 61.6509 0.619998 62.6589 0.619998C63.8109 0.619998 64.9269 0.607999 66.0069 0.583999C67.0869 0.559999 67.8549 0.547999 68.3109 0.547999C71.2869 0.547999 73.5069 1.076 74.9709 2.132C76.4589 3.188 77.2029 4.544 77.2029 6.2C77.2029 7.04 76.9509 7.892 76.4469 8.756C75.9429 9.62 75.1629 10.388 74.1069 11.06C73.0509 11.732 71.6829 12.224 70.0029 12.536V12.608C72.2589 12.776 74.0469 13.184 75.3669 13.832C76.6869 14.48 77.6349 15.26 78.2109 16.172C78.7869 17.084 79.0749 18.032 79.0749 19.016C79.0749 21.272 78.1869 23 76.4109 24.2C74.6589 25.4 72.2349 26 69.1389 26C68.5629 26 67.7229 25.988 66.6189 25.964C65.5389 25.916 64.2429 25.892 62.7309 25.892C61.6749 25.892 60.6309 25.904 59.5989 25.928C58.5909 25.928 57.7869 25.952 57.1869 26V25.28C57.9549 25.232 58.5309 25.136 58.9149 24.992C59.2989 24.848 59.5509 24.56 59.6709 24.128C59.8149 23.696 59.8869 23.048 59.8869 22.184V4.328C59.8869 3.44 59.8149 2.792 59.6709 2.384C59.5509 1.952 59.2869 1.664 58.8789 1.52C58.4949 1.352 57.9309 1.256 57.1869 1.232V0.512ZM67.8429 1.232C66.9069 1.232 66.2949 1.436 66.0069 1.844C65.7429 2.252 65.6109 3.08 65.6109 4.328V22.184C65.6109 23.432 65.7669 24.248 66.0789 24.632C66.3909 24.992 67.0629 25.172 68.0949 25.172C69.8229 25.172 71.0829 24.632 71.8749 23.552C72.6909 22.448 73.0989 20.888 73.0989 18.872C73.0989 17.024 72.6309 15.596 71.6949 14.588C70.7829 13.58 69.2589 13.076 67.1229 13.076H64.0629C64.0629 13.076 64.0629 12.98 64.0629 12.788C64.0629 12.572 64.0629 12.464 64.0629 12.464H67.1589C68.2869 12.464 69.1509 12.2 69.7509 11.672C70.3509 11.12 70.7709 10.4 71.0109 9.512C71.2509 8.6 71.3709 7.628 71.3709 6.596C71.3709 4.82 71.0949 3.488 70.5429 2.6C69.9909 1.688 69.0909 1.232 67.8429 1.232ZM92.6809 0.512V1.232C91.8409 1.256 91.2049 1.352 90.7729 1.52C90.3409 1.664 90.0529 1.952 89.9089 2.384C89.7649 2.792 89.6929 3.44 89.6929 4.328V22.184C89.6929 23.408 89.8129 24.236 90.0529 24.668C90.3169 25.076 90.8929 25.28 91.7809 25.28C92.9569 25.28 93.8689 25.004 94.5169 24.452C95.1649 23.9 95.6209 23.132 95.8849 22.148C96.1489 21.14 96.2809 19.952 96.2809 18.584C96.2809 17.216 96.1249 16.004 95.8129 14.948C95.5249 13.868 95.0209 13.028 94.3009 12.428C93.5809 11.828 92.5609 11.528 91.2409 11.528C90.5929 11.528 89.9089 11.54 89.1889 11.564C88.4929 11.564 87.8809 11.564 87.3529 11.564V10.844C88.1689 10.844 88.9729 10.844 89.7649 10.844C90.5809 10.82 91.2649 10.808 91.8169 10.808C94.4329 10.808 96.4969 11.144 98.0089 11.816C99.5449 12.464 100.637 13.34 101.285 14.444C101.933 15.548 102.257 16.76 102.257 18.08C102.257 19.112 102.065 20.108 101.681 21.068C101.297 22.028 100.685 22.88 99.8449 23.624C99.0289 24.344 97.9729 24.92 96.6769 25.352C95.3809 25.76 93.8209 25.964 91.9969 25.964C91.4449 25.964 90.7129 25.952 89.8009 25.928C88.9129 25.904 87.8689 25.892 86.6689 25.892C85.7089 25.892 84.7129 25.904 83.6809 25.928C82.6729 25.928 81.8689 25.952 81.2689 26V25.28C82.0129 25.232 82.5769 25.136 82.9609 24.992C83.3689 24.848 83.6329 24.56 83.7529 24.128C83.8969 23.696 83.9689 23.048 83.9689 22.184V4.328C83.9689 3.44 83.8969 2.792 83.7529 2.384C83.6329 1.952 83.3689 1.664 82.9609 1.52C82.5769 1.352 82.0129 1.256 81.2689 1.232V0.512C81.8689 0.536 82.6729 0.559999 83.6809 0.583999C84.7129 0.607999 85.8049 0.619998 86.9569 0.619998C88.0129 0.619998 89.0569 0.607999 90.0889 0.583999C91.1449 0.559999 92.0089 0.536 92.6809 0.512ZM115.001 0.512V1.232C114.233 1.256 113.645 1.352 113.237 1.52C112.853 1.664 112.601 1.952 112.481 2.384C112.361 2.792 112.301 3.44 112.301 4.328V22.184C112.301 23.048 112.361 23.696 112.481 24.128C112.625 24.56 112.889 24.848 113.273 24.992C113.657 25.136 114.233 25.232 115.001 25.28V26C114.353 25.952 113.537 25.928 112.553 25.928C111.569 25.904 110.573 25.892 109.565 25.892C108.413 25.892 107.321 25.904 106.289 25.928C105.281 25.928 104.477 25.952 103.877 26V25.28C104.645 25.232 105.221 25.136 105.605 24.992C105.989 24.848 106.241 24.56 106.361 24.128C106.505 23.696 106.577 23.048 106.577 22.184V4.328C106.577 3.44 106.505 2.792 106.361 2.384C106.217 1.952 105.953 1.664 105.569 1.52C105.185 1.352 104.621 1.256 103.877 1.232V0.512C104.477 0.536 105.281 0.559999 106.289 0.583999C107.321 0.607999 108.413 0.619998 109.565 0.619998C110.573 0.619998 111.569 0.607999 112.553 0.583999C113.537 0.559999 114.353 0.536 115.001 0.512ZM136.67 0.512C136.574 1.568 136.502 2.588 136.454 3.572C136.43 4.556 136.418 5.312 136.418 5.84C136.418 6.32 136.43 6.776 136.454 7.208C136.478 7.64 136.502 8 136.526 8.288H135.698C135.458 6.536 135.086 5.156 134.582 4.148C134.078 3.116 133.418 2.396 132.602 1.988C131.81 1.556 130.874 1.34 129.794 1.34H128.318C127.598 1.34 127.058 1.4 126.698 1.52C126.362 1.64 126.134 1.88 126.014 2.24C125.894 2.576 125.834 3.128 125.834 3.896V22.616C125.834 23.36 125.894 23.912 126.014 24.272C126.134 24.632 126.362 24.872 126.698 24.992C127.058 25.112 127.598 25.172 128.318 25.172H130.082C131.162 25.172 132.11 24.944 132.926 24.488C133.766 24.008 134.474 23.204 135.05 22.076C135.65 20.948 136.106 19.424 136.418 17.504H137.246C137.174 18.272 137.138 19.28 137.138 20.528C137.138 21.08 137.15 21.86 137.174 22.868C137.198 23.876 137.27 24.92 137.39 26C136.166 25.952 134.786 25.928 133.25 25.928C131.714 25.904 130.346 25.892 129.146 25.892C128.33 25.892 127.25 25.892 125.906 25.892C124.562 25.892 123.134 25.904 121.622 25.928C120.11 25.928 118.706 25.952 117.41 26V25.28C118.178 25.232 118.754 25.136 119.138 24.992C119.522 24.848 119.774 24.56 119.894 24.128C120.038 23.696 120.11 23.048 120.11 22.184V4.328C120.11 3.44 120.038 2.792 119.894 2.384C119.774 1.952 119.51 1.664 119.102 1.52C118.718 1.352 118.154 1.256 117.41 1.232V0.512C118.706 0.536 120.11 0.559999 121.622 0.583999C123.134 0.607999 124.562 0.619998 125.906 0.619998C127.25 0.619998 128.33 0.619998 129.146 0.619998C130.25 0.619998 131.498 0.619998 132.89 0.619998C134.306 0.595999 135.566 0.559999 136.67 0.512ZM131.054 12.824C131.054 12.824 131.054 12.944 131.054 13.184C131.054 13.424 131.054 13.544 131.054 13.544H124.754C124.754 13.544 124.754 13.424 124.754 13.184C124.754 12.944 124.754 12.824 124.754 12.824H131.054ZM132.098 8.072C132.002 9.44 131.954 10.484 131.954 11.204C131.978 11.924 131.99 12.584 131.99 13.184C131.99 13.784 132.002 14.444 132.026 15.164C132.05 15.884 132.11 16.928 132.206 18.296H131.378C131.258 17.456 131.03 16.676 130.694 15.956C130.382 15.236 129.926 14.66 129.326 14.228C128.726 13.772 127.946 13.544 126.986 13.544V12.824C127.946 12.824 128.714 12.56 129.29 12.032C129.866 11.504 130.31 10.88 130.622 10.16C130.934 9.416 131.15 8.72 131.27 8.072H132.098ZM175.227 0.512V1.232C174.459 1.256 173.883 1.352 173.499 1.52C173.115 1.664 172.851 1.952 172.707 2.384C172.587 2.792 172.527 3.44 172.527 4.328V22.184C172.527 23.048 172.587 23.696 172.707 24.128C172.851 24.56 173.115 24.848 173.499 24.992C173.883 25.136 174.459 25.232 175.227 25.28V26C174.603 25.952 173.787 25.928 172.779 25.928C171.771 25.904 170.691 25.892 169.539 25.892C168.531 25.892 167.523 25.904 166.515 25.928C165.531 25.928 164.727 25.952 164.103 26V25.28C164.847 25.232 165.411 25.136 165.795 24.992C166.203 24.848 166.467 24.56 166.587 24.128C166.731 23.696 166.803 23.048 166.803 22.184V4.328C166.803 3.008 166.623 2.168 166.263 1.808C165.903 1.424 165.111 1.232 163.887 1.232H160.179C158.955 1.232 158.163 1.424 157.803 1.808C157.443 2.168 157.263 3.008 157.263 4.328V22.184C157.263 23.048 157.323 23.696 157.443 24.128C157.587 24.56 157.851 24.848 158.235 24.992C158.619 25.136 159.195 25.232 159.963 25.28V26C159.315 25.952 158.499 25.928 157.515 25.928C156.531 25.904 155.535 25.892 154.527 25.892C153.351 25.892 152.259 25.904 151.251 25.928C150.267 25.928 149.463 25.952 148.839 26V25.28C149.583 25.232 150.147 25.136 150.531 24.992C150.939 24.848 151.203 24.56 151.323 24.128C151.467 23.696 151.539 23.048 151.539 22.184V4.328C151.539 3.44 151.467 2.792 151.323 2.384C151.203 1.952 150.939 1.664 150.531 1.52C150.147 1.352 149.583 1.256 148.839 1.232V0.512C149.463 0.536 150.267 0.559999 151.251 0.583999C152.259 0.607999 153.351 0.619998 154.527 0.619998C155.943 0.619998 157.347 0.607999 158.739 0.583999C160.131 0.536 161.247 0.512 162.087 0.512C162.927 0.512 164.031 0.536 165.399 0.583999C166.767 0.607999 168.147 0.619998 169.539 0.619998C170.691 0.619998 171.771 0.607999 172.779 0.583999C173.787 0.559999 174.603 0.536 175.227 0.512ZM190.419 0.00799775C192.963 0.00799775 195.183 0.523998 197.079 1.556C198.999 2.588 200.487 4.076 201.543 6.02C202.599 7.94 203.127 10.28 203.127 13.04C203.127 15.728 202.587 18.08 201.507 20.096C200.427 22.112 198.915 23.684 196.971 24.812C195.051 25.94 192.855 26.504 190.383 26.504C187.839 26.504 185.607 25.988 183.687 24.956C181.791 23.924 180.315 22.436 179.259 20.492C178.203 18.548 177.675 16.208 177.675 13.472C177.675 10.784 178.215 8.432 179.295 6.416C180.399 4.4 181.899 2.828 183.795 1.7C185.715 0.571998 187.923 0.00799775 190.419 0.00799775ZM190.275 0.655998C188.931 0.655998 187.755 1.196 186.747 2.276C185.763 3.356 184.995 4.844 184.443 6.74C183.915 8.636 183.651 10.832 183.651 13.328C183.651 15.872 183.951 18.092 184.551 19.988C185.175 21.86 186.003 23.312 187.035 24.344C188.091 25.352 189.255 25.856 190.527 25.856C191.871 25.856 193.035 25.316 194.019 24.236C195.027 23.156 195.795 21.668 196.323 19.772C196.875 17.852 197.151 15.656 197.151 13.184C197.151 10.616 196.839 8.396 196.215 6.524C195.615 4.652 194.787 3.212 193.731 2.204C192.699 1.172 191.547 0.655998 190.275 0.655998ZM218.966 0.00799775C220.55 0.00799775 221.846 0.247998 222.854 0.727999C223.886 1.184 224.798 1.724 225.59 2.348C226.07 2.708 226.43 2.756 226.67 2.492C226.934 2.204 227.114 1.544 227.21 0.512H228.038C227.99 1.448 227.954 2.588 227.93 3.932C227.906 5.252 227.894 7.016 227.894 9.224H227.066C226.946 8.12 226.79 7.184 226.598 6.416C226.406 5.624 226.142 4.928 225.806 4.328C225.47 3.728 224.99 3.188 224.366 2.708C223.766 2.108 223.07 1.664 222.278 1.376C221.486 1.088 220.658 0.943999 219.794 0.943999C218.498 0.943999 217.394 1.292 216.482 1.988C215.57 2.66 214.826 3.584 214.25 4.76C213.698 5.936 213.29 7.268 213.026 8.756C212.762 10.22 212.63 11.744 212.63 13.328C212.63 14.936 212.762 16.484 213.026 17.972C213.314 19.436 213.746 20.744 214.322 21.896C214.922 23.048 215.69 23.96 216.626 24.632C217.562 25.304 218.666 25.64 219.938 25.64C220.73 25.64 221.522 25.496 222.314 25.208C223.13 24.896 223.826 24.452 224.402 23.876C225.338 23.156 225.974 22.268 226.31 21.212C226.646 20.132 226.898 18.704 227.066 16.928H227.894C227.894 19.208 227.906 21.056 227.93 22.472C227.954 23.864 227.99 25.04 228.038 26H227.21C227.114 24.968 226.946 24.32 226.706 24.056C226.49 23.792 226.118 23.828 225.59 24.164C224.702 24.788 223.754 25.34 222.746 25.82C221.762 26.276 220.49 26.504 218.93 26.504C216.386 26.504 214.154 25.988 212.234 24.956C210.338 23.924 208.862 22.436 207.806 20.492C206.75 18.548 206.222 16.208 206.222 13.472C206.222 10.784 206.762 8.432 207.842 6.416C208.946 4.4 210.446 2.828 212.342 1.7C214.262 0.571998 216.47 0.00799775 218.966 0.00799775ZM253.169 0.512C253.073 1.736 253.001 2.912 252.953 4.04C252.929 5.168 252.917 6.032 252.917 6.632C252.917 7.16 252.929 7.664 252.953 8.144C252.977 8.624 253.001 9.032 253.025 9.368H252.197C251.813 7.352 251.321 5.756 250.721 4.58C250.145 3.404 249.449 2.576 248.633 2.096C247.817 1.592 246.857 1.34 245.753 1.34H244.925V21.896C244.925 22.856 245.021 23.576 245.213 24.056C245.429 24.536 245.813 24.86 246.365 25.028C246.917 25.172 247.721 25.256 248.777 25.28V26C248.033 25.976 247.037 25.952 245.789 25.928C244.565 25.904 243.281 25.892 241.937 25.892C240.617 25.892 239.369 25.904 238.193 25.928C237.017 25.952 236.069 25.976 235.349 26V25.28C236.429 25.256 237.245 25.172 237.797 25.028C238.349 24.86 238.721 24.536 238.913 24.056C239.105 23.576 239.201 22.856 239.201 21.896V1.34H238.409C237.305 1.34 236.345 1.592 235.529 2.096C234.713 2.576 234.017 3.404 233.441 4.58C232.865 5.732 232.361 7.328 231.929 9.368H231.101C231.149 9.032 231.173 8.624 231.173 8.144C231.197 7.664 231.209 7.16 231.209 6.632C231.209 6.032 231.185 5.168 231.137 4.04C231.113 2.912 231.053 1.736 230.957 0.512C232.061 0.536 233.261 0.559999 234.557 0.583999C235.877 0.607999 237.197 0.619998 238.517 0.619998C239.837 0.619998 241.025 0.619998 242.081 0.619998C243.161 0.619998 244.349 0.619998 245.645 0.619998C246.965 0.619998 248.285 0.607999 249.605 0.583999C250.925 0.559999 252.113 0.536 253.169 0.512ZM278.404 0.512V1.232C277.876 1.424 277.348 1.844 276.82 2.492C276.292 3.14 275.68 4.1 274.984 5.372L267.136 21.14L266.308 21.32L256.12 3.428C255.664 2.636 255.244 2.084 254.86 1.772C254.476 1.46 254.104 1.28 253.744 1.232V0.512C254.08 0.536 254.524 0.559999 255.076 0.583999C255.652 0.583999 256.252 0.595999 256.876 0.619998C257.5 0.619998 258.052 0.619998 258.532 0.619998C259.084 0.619998 259.72 0.619998 260.44 0.619998C261.184 0.595999 261.904 0.583999 262.6 0.583999C263.296 0.559999 263.848 0.536 264.256 0.512V1.232C263.584 1.28 263.044 1.496 262.636 1.88C262.252 2.264 262.312 3.008 262.816 4.112L269.368 15.74L267.856 18.08L272.824 8.036C273.712 6.308 274.18 4.952 274.228 3.968C274.276 2.984 274.024 2.288 273.472 1.88C272.92 1.472 272.152 1.256 271.168 1.232V0.512C271.984 0.536 272.752 0.559999 273.472 0.583999C274.192 0.607999 274.912 0.619998 275.632 0.619998C276.184 0.619998 276.688 0.607999 277.144 0.583999C277.624 0.559999 278.044 0.536 278.404 0.512ZM267.208 19.34L267.892 19.628L266.2 23.048C265.888 23.672 265.612 24.164 265.372 24.524C265.132 24.884 264.88 25.196 264.616 25.46C264.232 25.844 263.764 26.108 263.212 26.252C262.684 26.42 262.144 26.504 261.592 26.504C260.368 26.504 259.396 26.216 258.676 25.64C257.956 25.064 257.596 24.356 257.596 23.516C257.596 22.652 257.908 21.968 258.532 21.464C259.156 20.936 259.912 20.672 260.8 20.672C261.712 20.672 262.456 20.876 263.032 21.284C263.608 21.668 263.896 22.232 263.896 22.976C263.896 23.648 263.656 24.212 263.176 24.668C262.72 25.124 262.156 25.46 261.484 25.676C261.58 25.748 261.82 25.784 262.204 25.784C262.9 25.784 263.5 25.544 264.004 25.064C264.532 24.56 265.012 23.864 265.444 22.976L267.208 19.34ZM305.481 0.512V1.232C304.713 1.256 304.137 1.352 303.753 1.52C303.369 1.664 303.105 1.952 302.961 2.384C302.841 2.792 302.781 3.44 302.781 4.328V22.184C302.781 23.048 302.841 23.696 302.961 24.128C303.105 24.56 303.369 24.848 303.753 24.992C304.137 25.136 304.713 25.232 305.481 25.28V26C304.857 25.952 304.041 25.928 303.033 25.928C302.025 25.904 300.945 25.892 299.793 25.892C298.785 25.892 297.777 25.904 296.769 25.928C295.785 25.928 294.981 25.952 294.357 26V25.28C295.101 25.232 295.665 25.136 296.049 24.992C296.457 24.848 296.721 24.56 296.841 24.128C296.985 23.696 297.057 23.048 297.057 22.184V4.328C297.057 3.008 296.877 2.168 296.517 1.808C296.157 1.424 295.365 1.232 294.141 1.232H290.433C289.209 1.232 288.417 1.424 288.057 1.808C287.697 2.168 287.517 3.008 287.517 4.328V22.184C287.517 23.048 287.577 23.696 287.697 24.128C287.841 24.56 288.105 24.848 288.489 24.992C288.873 25.136 289.449 25.232 290.217 25.28V26C289.569 25.952 288.753 25.928 287.769 25.928C286.785 25.904 285.789 25.892 284.781 25.892C283.605 25.892 282.513 25.904 281.505 25.928C280.521 25.928 279.717 25.952 279.093 26V25.28C279.837 25.232 280.401 25.136 280.785 24.992C281.193 24.848 281.457 24.56 281.577 24.128C281.721 23.696 281.793 23.048 281.793 22.184V4.328C281.793 3.44 281.721 2.792 281.577 2.384C281.457 1.952 281.193 1.664 280.785 1.52C280.401 1.352 279.837 1.256 279.093 1.232V0.512C279.717 0.536 280.521 0.559999 281.505 0.583999C282.513 0.607999 283.605 0.619998 284.781 0.619998C286.197 0.619998 287.601 0.607999 288.993 0.583999C290.385 0.536 291.501 0.512 292.341 0.512C293.181 0.512 294.285 0.536 295.653 0.583999C297.021 0.607999 298.401 0.619998 299.793 0.619998C300.945 0.619998 302.025 0.607999 303.033 0.583999C304.041 0.559999 304.857 0.536 305.481 0.512ZM331.502 0.512V1.232C330.686 1.256 330.062 1.352 329.63 1.52C329.222 1.664 328.946 1.952 328.802 2.384C328.658 2.792 328.586 3.44 328.586 4.328V22.184C328.586 23.048 328.658 23.696 328.802 24.128C328.946 24.56 329.222 24.848 329.63 24.992C330.062 25.136 330.686 25.232 331.502 25.28V26C330.854 25.952 330.002 25.928 328.946 25.928C327.914 25.904 326.81 25.892 325.634 25.892C324.506 25.892 323.402 25.904 322.322 25.928C321.242 25.928 320.354 25.952 319.658 26V25.28C320.546 25.232 321.218 25.136 321.674 24.992C322.154 24.848 322.466 24.56 322.61 24.128C322.778 23.696 322.862 23.048 322.862 22.184V4.328C322.862 3.008 322.67 2.168 322.286 1.808C321.926 1.424 321.29 1.232 320.378 1.232H320.126C319.55 1.232 319.082 1.316 318.722 1.484C318.386 1.628 318.134 1.928 317.966 2.384C317.822 2.816 317.714 3.464 317.642 4.328C317.498 6.008 317.354 7.856 317.21 9.872C317.066 11.864 316.874 13.844 316.634 15.812C316.394 17.756 316.022 19.544 315.518 21.176C315.038 22.784 314.366 24.08 313.502 25.064C312.638 26.024 311.51 26.504 310.118 26.504C309.038 26.504 308.102 26.204 307.31 25.604C306.542 24.98 306.158 24.164 306.158 23.156C306.158 22.22 306.47 21.476 307.094 20.924C307.742 20.372 308.522 20.096 309.434 20.096C310.226 20.096 310.862 20.3 311.342 20.708C311.846 21.092 312.098 21.632 312.098 22.328C312.098 23.168 311.822 23.876 311.27 24.452C310.742 25.004 310.058 25.4 309.218 25.64C309.338 25.712 309.47 25.76 309.614 25.784C309.782 25.808 309.95 25.82 310.118 25.82C311.222 25.82 312.146 25.4 312.89 24.56C313.634 23.72 314.234 22.58 314.69 21.14C315.17 19.676 315.542 18.02 315.806 16.172C316.07 14.324 316.274 12.392 316.418 10.376C316.562 8.336 316.694 6.32 316.814 4.328C316.91 3.056 316.766 2.24 316.382 1.88C316.022 1.496 315.194 1.28 313.898 1.232V0.512C314.402 0.536 315.002 0.559999 315.698 0.583999C316.394 0.607999 317.03 0.619998 317.606 0.619998C318.158 0.619998 318.686 0.607999 319.19 0.583999C319.718 0.536 320.246 0.512 320.774 0.512C321.686 0.512 322.514 0.536 323.258 0.583999C324.002 0.607999 324.89 0.619998 325.922 0.619998C326.522 0.619998 327.17 0.619998 327.866 0.619998C328.586 0.595999 329.258 0.583999 329.882 0.583999C330.53 0.559999 331.07 0.536 331.502 0.512ZM353.056 0.512C352.96 1.568 352.888 2.588 352.84 3.572C352.816 4.556 352.804 5.312 352.804 5.84C352.804 6.32 352.816 6.776 352.84 7.208C352.864 7.64 352.888 8 352.912 8.288H352.084C351.844 6.536 351.472 5.156 350.968 4.148C350.464 3.116 349.804 2.396 348.988 1.988C348.196 1.556 347.26 1.34 346.18 1.34H344.704C343.984 1.34 343.444 1.4 343.084 1.52C342.748 1.64 342.52 1.88 342.4 2.24C342.28 2.576 342.22 3.128 342.22 3.896V22.616C342.22 23.36 342.28 23.912 342.4 24.272C342.52 24.632 342.748 24.872 343.084 24.992C343.444 25.112 343.984 25.172 344.704 25.172H346.468C347.548 25.172 348.496 24.944 349.312 24.488C350.152 24.008 350.86 23.204 351.436 22.076C352.036 20.948 352.492 19.424 352.804 17.504H353.632C353.56 18.272 353.524 19.28 353.524 20.528C353.524 21.08 353.536 21.86 353.56 22.868C353.584 23.876 353.656 24.92 353.776 26C352.552 25.952 351.172 25.928 349.636 25.928C348.1 25.904 346.732 25.892 345.532 25.892C344.716 25.892 343.636 25.892 342.292 25.892C340.948 25.892 339.52 25.904 338.008 25.928C336.496 25.928 335.092 25.952 333.796 26V25.28C334.564 25.232 335.14 25.136 335.524 24.992C335.908 24.848 336.16 24.56 336.28 24.128C336.424 23.696 336.496 23.048 336.496 22.184V4.328C336.496 3.44 336.424 2.792 336.28 2.384C336.16 1.952 335.896 1.664 335.488 1.52C335.104 1.352 334.54 1.256 333.796 1.232V0.512C335.092 0.536 336.496 0.559999 338.008 0.583999C339.52 0.607999 340.948 0.619998 342.292 0.619998C343.636 0.619998 344.716 0.619998 345.532 0.619998C346.636 0.619998 347.884 0.619998 349.276 0.619998C350.692 0.595999 351.952 0.559999 353.056 0.512ZM347.44 12.824C347.44 12.824 347.44 12.944 347.44 13.184C347.44 13.424 347.44 13.544 347.44 13.544H341.14C341.14 13.544 341.14 13.424 341.14 13.184C341.14 12.944 341.14 12.824 341.14 12.824H347.44ZM348.484 8.072C348.388 9.44 348.34 10.484 348.34 11.204C348.364 11.924 348.376 12.584 348.376 13.184C348.376 13.784 348.388 14.444 348.412 15.164C348.436 15.884 348.496 16.928 348.592 18.296H347.764C347.644 17.456 347.416 16.676 347.08 15.956C346.768 15.236 346.312 14.66 345.712 14.228C345.112 13.772 344.332 13.544 343.372 13.544V12.824C344.332 12.824 345.1 12.56 345.676 12.032C346.252 11.504 346.696 10.88 347.008 10.16C347.32 9.416 347.536 8.72 347.656 8.072H348.484ZM371.877 26V25.28C372.645 25.232 373.221 25.136 373.605 24.992C373.989 24.848 374.241 24.56 374.361 24.128C374.505 23.696 374.577 23.048 374.577 22.184V4.328C374.577 3.44 374.505 2.792 374.361 2.384C374.241 1.952 373.977 1.664 373.569 1.52C373.185 1.352 372.621 1.256 371.877 1.232V0.512C372.525 0.536 373.365 0.559999 374.397 0.583999C375.453 0.607999 376.497 0.619998 377.529 0.619998C378.633 0.619998 379.665 0.607999 380.625 0.583999C381.609 0.559999 382.401 0.536 383.001 0.512V1.232C382.233 1.256 381.645 1.352 381.237 1.52C380.853 1.664 380.601 1.952 380.481 2.384C380.361 2.792 380.301 3.44 380.301 4.328V22.184C380.301 23.048 380.361 23.696 380.481 24.128C380.625 24.56 380.889 24.848 381.273 24.992C381.657 25.136 382.233 25.232 383.001 25.28V26C382.401 25.952 381.609 25.928 380.625 25.928C379.665 25.904 378.633 25.892 377.529 25.892C376.497 25.892 375.453 25.904 374.397 25.928C373.365 25.928 372.525 25.952 371.877 26ZM356.613 26V25.28C357.381 25.232 357.957 25.136 358.341 24.992C358.725 24.848 358.977 24.56 359.097 24.128C359.241 23.696 359.313 23.048 359.313 22.184V4.328C359.313 3.44 359.241 2.792 359.097 2.384C358.977 1.952 358.713 1.664 358.305 1.52C357.921 1.352 357.357 1.256 356.613 1.232V0.512C357.237 0.536 358.041 0.559999 359.025 0.583999C360.033 0.607999 361.125 0.619998 362.301 0.619998C363.309 0.619998 364.305 0.607999 365.289 0.583999C366.273 0.559999 367.089 0.536 367.737 0.512V1.232C366.969 1.256 366.381 1.352 365.973 1.52C365.589 1.664 365.337 1.952 365.217 2.384C365.097 2.792 365.037 3.44 365.037 4.328V22.184C365.037 23.048 365.097 23.696 365.217 24.128C365.361 24.56 365.625 24.848 366.009 24.992C366.393 25.136 366.969 25.232 367.737 25.28V26C367.089 25.952 366.273 25.928 365.289 25.928C364.305 25.904 363.309 25.892 362.301 25.892C361.125 25.892 360.033 25.904 359.025 25.928C358.041 25.928 357.237 25.952 356.613 26ZM362.697 13.544V12.824H376.917V13.544H362.697ZM396.53 0.512V1.232C395.762 1.256 395.186 1.352 394.802 1.52C394.418 1.664 394.154 1.952 394.01 2.384C393.89 2.792 393.83 3.44 393.83 4.328V22.184C393.83 23.048 393.89 23.696 394.01 24.128C394.154 24.56 394.418 24.848 394.802 24.992C395.186 25.136 395.762 25.232 396.53 25.28V26C395.882 25.952 395.066 25.928 394.082 25.928C393.098 25.904 392.102 25.892 391.094 25.892C389.918 25.892 388.826 25.904 387.818 25.928C386.834 25.928 386.03 25.952 385.406 26V25.28C386.15 25.232 386.714 25.136 387.098 24.992C387.506 24.848 387.77 24.56 387.89 24.128C388.034 23.696 388.106 23.048 388.106 22.184V4.328C388.106 3.44 388.034 2.792 387.89 2.384C387.77 1.952 387.506 1.664 387.098 1.52C386.714 1.352 386.15 1.256 385.406 1.232V0.512C386.03 0.536 386.834 0.559999 387.818 0.583999C388.826 0.607999 389.918 0.619998 391.094 0.619998C392.102 0.619998 393.098 0.607999 394.082 0.583999C395.066 0.559999 395.882 0.536 396.53 0.512ZM404.81 2.492C404.81 2.492 404.81 2.624 404.81 2.888C404.81 3.128 404.81 3.38 404.81 3.644C404.834 3.908 404.846 4.04 404.846 4.04L392.822 24.38L392.498 23.372L404.81 2.492ZM412.514 0.512V1.232C411.746 1.256 411.17 1.352 410.786 1.52C410.402 1.664 410.138 1.952 409.994 2.384C409.874 2.792 409.814 3.44 409.814 4.328V22.184C409.814 23.048 409.874 23.696 409.994 24.128C410.138 24.56 410.402 24.848 410.786 24.992C411.17 25.136 411.746 25.232 412.514 25.28V26C411.89 25.952 411.074 25.928 410.066 25.928C409.058 25.904 407.978 25.892 406.826 25.892C405.818 25.892 404.81 25.904 403.802 25.928C402.818 25.928 402.014 25.952 401.39 26V25.28C402.134 25.232 402.698 25.136 403.082 24.992C403.466 24.848 403.73 24.56 403.874 24.128C404.018 23.696 404.09 23.048 404.09 22.184V4.328C404.09 3.44 404.018 2.792 403.874 2.384C403.73 1.952 403.466 1.664 403.082 1.52C402.698 1.352 402.134 1.256 401.39 1.232V0.512C402.014 0.536 402.818 0.559999 403.802 0.583999C404.81 0.607999 405.818 0.619998 406.826 0.619998C407.978 0.619998 409.058 0.607999 410.066 0.583999C411.074 0.559999 411.89 0.536 412.514 0.512ZM437.617 0.512V1.232C436.849 1.256 436.273 1.352 435.889 1.52C435.505 1.664 435.241 1.952 435.097 2.384C434.977 2.792 434.917 3.44 434.917 4.328V22.184C434.917 23.048 434.977 23.696 435.097 24.128C435.241 24.56 435.505 24.848 435.889 24.992C436.273 25.136 436.849 25.232 437.617 25.28V26C437.017 25.952 436.201 25.928 435.169 25.928C434.161 25.904 433.081 25.892 431.929 25.892C430.945 25.892 429.949 25.904 428.941 25.928C427.933 25.928 427.117 25.952 426.493 26V25.28C427.237 25.232 427.801 25.136 428.185 24.992C428.593 24.848 428.857 24.56 428.977 24.128C429.121 23.696 429.193 23.048 429.193 22.184V4.328C429.193 3.08 429.049 2.252 428.761 1.844C428.497 1.436 427.897 1.232 426.961 1.232C425.329 1.232 424.177 1.748 423.505 2.78C422.833 3.812 422.497 5.252 422.497 7.1C422.497 8.228 422.629 9.26 422.893 10.196C423.157 11.108 423.661 11.84 424.405 12.392C425.149 12.92 426.229 13.184 427.645 13.184H430.741C430.741 13.184 430.741 13.304 430.741 13.544C430.741 13.784 430.741 13.904 430.741 13.904H427.285C424.453 13.904 422.257 13.58 420.697 12.932C419.137 12.284 418.045 11.432 417.421 10.376C416.821 9.32 416.521 8.204 416.521 7.028C416.521 4.964 417.337 3.368 418.969 2.24C420.625 1.112 423.133 0.547999 426.493 0.547999C426.949 0.547999 427.705 0.559999 428.761 0.583999C429.841 0.607999 430.969 0.619998 432.145 0.619998C433.153 0.619998 434.161 0.607999 435.169 0.583999C436.201 0.559999 437.017 0.536 437.617 0.512ZM430.525 13.292L430.453 13.904H426.565C425.821 13.904 425.233 14.132 424.801 14.588C424.393 15.02 424.069 15.62 423.829 16.388C423.589 17.132 423.385 18.008 423.217 19.016L422.569 22.616C422.305 24.104 421.753 25.124 420.913 25.676C420.073 26.228 419.017 26.504 417.745 26.504C416.713 26.504 415.825 26.336 415.081 26C414.337 25.688 413.653 25.16 413.029 24.416L413.533 23.984C413.773 24.248 413.989 24.452 414.181 24.596C414.397 24.716 414.661 24.788 414.973 24.812C415.429 24.812 415.777 24.62 416.017 24.236C416.257 23.852 416.473 23.18 416.665 22.22L417.421 18.512C417.733 16.976 418.441 15.872 419.545 15.2C420.649 14.528 422.233 14.06 424.297 13.796C424.753 13.724 425.209 13.664 425.665 13.616C426.121 13.568 426.721 13.52 427.465 13.472C428.233 13.4 429.253 13.34 430.525 13.292Z" fill="white"/>
</svg>
